<svg width="124" height="83" viewBox="0 0 124 83" fill="none" xmlns="http://www.w3.org/2000/svg">
<rect x="1" y="1" width="122" height="81" rx="21" stroke="#FEFCFB" stroke-width="2"/>
<path d="M50.3168 29.6741C50.2695 28.3189 50.2458 27.6413 50.3768 27.1846C50.8 25.7086 52.2694 24.7904 53.7815 25.0571C54.2495 25.1396 54.8481 25.4579 56.0454 26.0945L78.5263 38.0478C79.7235 38.6844 80.3222 39.0027 80.6522 39.3445C81.7188 40.449 81.7793 42.1806 80.7923 43.3568C80.4869 43.7208 79.9119 44.0801 78.762 44.7986L57.1697 58.291C56.0198 59.0096 55.4448 59.3688 54.9837 59.4838C53.4939 59.8553 51.9641 59.0418 51.4389 57.599C51.2764 57.1525 51.2527 56.4749 51.2054 55.1197L50.3168 29.6741Z" fill="#D9D9D9"/>
</svg>
